
<svg version="1.1" xmlns="http://www.w3.org/2000/svg" xmlns:xlink="http://www.w3.org/1999/xlink" x="0px" y="0px" viewBox="0 0 1000 1000">
<g>
<g transform="translate(50.000000,512.000000) scale(0.090000,-0.090000)">
<path d="M4929.2,4997c-47.8-23-67-68.9-112.9-254.6c-42.1-179.9-164.6-499.6-394.3-1043.2c-568.5-1336-792.4-2057.6-907.3-2899.8c-67-490-40.2-1261.4,59.3-1732.2l26.8-124.4l-788.6-790.5l-788.6-788.6h-283.3c-208.6,0-296.7-7.7-335-26.8c-61.2-32.5-641.2-616.3-671.8-675.7c-28.7-55.5-28.7-677.6,0-738.8c36.4-78.5,91.9-90,440.2-90c245,0,338.8,7.7,377.1,26.8c61.3,32.5,641.2,616.3,671.8,675.7c13.4,24.9,21.1,155,21.1,325.4v283.3l717.8,717.8c470.9,470.9,719.7,706.3,725.4,687.2c5.8-13.4,36.4-116.8,67-227.8c126.3-444.1,333-993.4,643.1-1722.6c237.3-557,367.5-893.9,411.5-1075.7c57.4-225.8,72.7-258.4,135.9-283.3c44-19.1,67-19.1,111,0c65.1,26.8,67,28.7,128.2,262.2c53.6,206.7,172.3,514.9,465.1,1211.6c566.6,1339.8,794.3,2139.9,865.2,3033.8c32.5,424.9-3.8,1024-88.1,1426l-26.8,124.4l788.6,790.5l788.6,788.6h283.3c208.6,0,296.7,7.7,335,26.8c61.3,32.5,641.2,616.3,671.8,675.7c28.7,55.5,28.7,677.6,0,738.8c-36.4,78.5-91.9,90-440.2,90c-245,0-338.8-7.7-377.1-26.8c-61.3-32.5-641.2-616.3-671.8-675.7c-13.4-24.9-21-155-21-325.4v-283.3l-717.8-717.8c-463.2-463.2-719.7-706.3-725.4-687.1c-3.8,13.4-51.7,172.3-105.3,348.4c-124.4,411.5-298.6,876.6-539.8,1445.1c-285.2,671.8-432.6,1052.7-484.3,1251.8c-61.2,231.6-63.2,235.4-118.7,262.2C5007.6,5023.8,4984.7,5023.8,4929.2,4997z M5147.4,3952c74.7-185.7,214.4-526.4,310.1-754.1c235.4-564.7,384.7-981.9,511.1-1416.4l105.3-367.5L5847.9,1188l-225.9-225.9l-9.6,329.2c-9.6,308.2-13.4,338.8-59.3,438.3c-65.1,139.7-183.8,256.5-321.6,319.6c-289,135.9-637.4-5.7-784.8-319.6l-49.8-107.2l-5.7-947.5l-5.8-949.4l-264.1-264.2l-264.1-264.1l-21,132.1c-70.8,430.7-76.6,1066.1-13.4,1494.9c101.4,698.6,310.1,1385.8,717.8,2367.7c95.7,231.6,237.3,574.2,312,759.9c76.6,187.6,141.7,340.7,147.4,340.7C5005.7,4292.7,5070.8,4139.5,5147.4,3952z M8981.2,3906v-197.1L8719,3446.6l-264.1-264.1h-195.2h-197.1v195.2v197.1l262.2,262.2l264.1,264.1h195.2h197.1V3906z M5187.6,1754.6c111-82.3,118.7-124.4,118.7-639.3v-469L5000,340.1L4691.8,33.9l5.8,798.2c5.7,771.4,7.6,798.2,45.9,851.8c21.1,28.7,68.9,68.9,105.3,88C4934.9,1817.8,5112.9,1808.2,5187.6,1754.6z M6203.9,590.9c103.3-1027.8-120.6-2059.5-794.3-3663.5c-99.5-239.3-231.6-557-290.9-706.3c-59.3-151.2-112.9-273.7-118.7-273.7c-7.6,0-23,32.5-36.4,72.7c-15.3,38.3-145.5,357.9-292.9,710.1c-386.6,932.1-547.4,1374.3-692.9,1916l-49.8,181.8L4154-946.1l223.9,223.9l9.6-338.8c11.5-323.5,13.4-346.4,63.2-442.1c160.8-306.3,497.7-440.2,780.9-306.3c137.8,63.2,256.5,179.9,321.6,319.7l49.8,107.2l5.7,947.5l5.8,947.5l262.2,264.1l262.2,262.2l23-118.7C6173.3,853.1,6192.4,705.7,6203.9,590.9z M5273.7-1407.4c-55.5-111-122.5-147.4-273.7-147.4c-151.2,0-216.3,34.4-271.8,145.4c-30.6,57.4-34.4,126.3-34.4,534v468.9L4996.2-104l300.5,300.5l5.7-767.5C5306.2-1273.4,5304.3-1346.2,5273.7-1407.4z M1937.5-3137.7v-197.2l-262.2-262.2l-264.1-264.1h-195.2h-197.1v195.2v197.1l262.2,262.2l264.1,264.1h195.2h197.1V-3137.7z"/>
</g>
<g transform="translate(0.000000,512.000000) scale(0.0300000,-0.0300000)">
<path d="M6463.3,4995.1c-139.7-80.4-662.1-767.4-939.6-1238.2c-499.5-847.8-763.6-1655.3-821-2506.9l-13.4-200.9L4233.9-93.4c-252.6-627.7-457.4-1150.1-457.4-1161.6c0-47.8,47.8-116.7,93.8-135.9c44-17.2,156.9,1.9,700.4,122.5c355.9,80.4,648.7,143.5,650.7,139.7c1.9-1.9,53.6-97.6,114.8-214.3c237.3-445.9,518.6-872.6,815.2-1234.3l189.5-229.6l-574.1-859.3c-315.8-472.7-583.7-880.3-595.2-907.1c-28.7-65.1,5.7-153.1,70.8-183.7c67-30.6,2512.7-30.6,2577.7,0c47.8,21.1,90,90,90,141.6c0,15.3-267.9,428.7-593.2,918.6l-593.2,891.8l130.1,156.9c310,369.3,556.9,734.9,815.2,1198c89.9,160.7,166.5,302.4,168.4,310c3.8,9.6,298.5-47.8,654.5-126.3c713.8-158.8,731-160.8,778.9-44c21.1,53.6-3.8,122.5-438.2,1217.1l-461.2,1161.6l-11.5,191.4c-72.7,1198-660.2,2508.8-1615.2,3597.7c-101.4,116.7-160.7,160.7-212.4,160.7C6516.9,5018.1,6484.4,5008.5,6463.3,4995.1z M6664.2,4486.1c289-344.5,602.8-822.9,813.3-1232.4c111-220.1,260.3-553.1,260.3-587.5c0-17.2-197.1-97.6-344.5-139.7c-283.2-80.4-442.1-99.5-861.2-99.5c-419.1,0-577.9,19.1-861.2,99.5c-153.1,42.1-344.5,122.5-344.5,141.6c0,9.6,44,116.7,95.7,241.1c105.3,244.9,273.7,562.6,447.8,842c189.5,306.2,631.5,891.8,664,880.3C6541.8,4629.6,6599.2,4564.5,6664.2,4486.1z M5454.8,2283.4c367.4-122.5,614.3-158.8,1077.4-158.8s717.6,38.3,1075.5,158.8c122.5,42.1,227.7,76.5,233.5,76.5c17.2,0,88-256.4,135.9-489.9c248.8-1198-55.5-2451.4-899.4-3720.2c-166.5-250.7-516.7-698.5-543.5-698.5c-51.7,0-499.5,604.7-729.1,985.5c-711.9,1182.7-945.4,2306-717.6,3435.1c44,216.2,118.6,488,132,488C5223.2,2360,5330.4,2325.5,5454.8,2283.4z M4838.6-32.1c38.3-162.7,111-407.6,160.7-545.4c51.7-135.9,86.1-254.5,80.4-260.3c-11.5-15.3-886-210.5-895.6-202.9c-1.9,3.8,122.5,323.4,277.5,710c237.3,593.2,283.2,696.6,294.7,650.7C4762,289.4,4800.3,130.5,4838.6-32.1z M8618.1-367c145.4-367.4,264.1-669.8,262.2-673.6c-9.6-7.6-884.1,189.5-895.6,200.9c-5.7,7.6,28.7,124.4,78.5,262.2c82.3,218.2,202.8,667.9,239.2,880.3c11.5,65.1,17.2,70.8,30.6,38.3C8342.5,320,8470.8,2.3,8618.1-367z M7008.7-3773.4l459.3-688.9l-466.9-5.7c-258.4-1.9-679.4-1.9-937.7,0l-468.9,5.7l463.1,694.7c254.5,380.8,468.9,690.8,476.5,688.9C6543.7-3082.6,6756.1-3394.5,7008.7-3773.4z"/>
<path d="M6379.1,3489.1V3336h153.1h153.1v153.1v153.1h-153.1h-153.1V3489.1z"/>
<path d="M5615.5,1632.8c-22.9-76.6-40.2-139.7-36.4-141.6c17.2-13.4,258.4-70.8,417.2-99.5c220.1-40.2,799.9-45.9,1014.3-11.5c137.8,23,461.2,97.6,474.6,109.1c3.8,3.8-13.4,68.9-36.3,143.5c-38.3,116.7-49.8,135.9-84.2,128.2c-21-3.8-128.2-28.7-239.2-53.6c-174.1-38.3-252.6-44-593.2-44c-340.6,0-419.1,5.7-593.2,44c-111,24.9-220.1,49.8-241.1,53.6C5661.5,1768.6,5651.9,1753.3,5615.5,1632.8z"/>
<path d="M5615.5,1020.4c-22.9-76.5-40.2-139.7-36.4-143.5c13.4-11.5,338.7-86.1,474.6-109.1c214.3-34.4,794.2-28.7,1014.3,11.5c160.8,28.7,400,86.1,417.2,99.5c3.8,1.9-13.4,67-36.3,141.6c-38.3,116.7-49.8,135.9-84.2,128.2c-21-3.8-128.2-28.7-239.2-53.6c-174.1-38.3-252.6-44-593.2-44c-340.6,0-419.1,5.7-593.2,44c-111,24.9-220.1,49.8-241.1,53.6C5661.5,1156.3,5651.9,1141,5615.5,1020.4z"/>
</g>
<g transform=" rotate(180, 500, 500) translate(0.000000,512.000000) scale(0.0300000,-0.0300000)">
<path d="M6463.3,4995.1c-139.7-80.4-662.1-767.4-939.6-1238.2c-499.5-847.8-763.6-1655.3-821-2506.9l-13.4-200.9L4233.9-93.4c-252.6-627.7-457.4-1150.1-457.4-1161.6c0-47.8,47.8-116.7,93.8-135.9c44-17.2,156.9,1.9,700.4,122.5c355.9,80.4,648.7,143.5,650.7,139.7c1.9-1.9,53.6-97.6,114.8-214.3c237.3-445.9,518.6-872.6,815.2-1234.3l189.5-229.6l-574.1-859.3c-315.8-472.7-583.7-880.3-595.2-907.1c-28.7-65.1,5.7-153.1,70.8-183.7c67-30.6,2512.7-30.6,2577.7,0c47.8,21.1,90,90,90,141.6c0,15.3-267.9,428.7-593.2,918.6l-593.2,891.8l130.1,156.9c310,369.3,556.9,734.9,815.2,1198c89.9,160.7,166.5,302.4,168.4,310c3.8,9.6,298.5-47.8,654.5-126.3c713.8-158.8,731-160.8,778.9-44c21.1,53.6-3.8,122.5-438.2,1217.1l-461.2,1161.6l-11.5,191.4c-72.7,1198-660.2,2508.8-1615.2,3597.7c-101.4,116.7-160.7,160.7-212.4,160.7C6516.9,5018.1,6484.4,5008.5,6463.3,4995.1z M6664.2,4486.1c289-344.5,602.8-822.9,813.3-1232.4c111-220.1,260.3-553.1,260.3-587.5c0-17.2-197.1-97.6-344.5-139.7c-283.2-80.4-442.1-99.5-861.2-99.5c-419.1,0-577.9,19.1-861.2,99.5c-153.1,42.1-344.5,122.5-344.5,141.6c0,9.6,44,116.7,95.7,241.1c105.3,244.9,273.7,562.6,447.8,842c189.5,306.2,631.5,891.8,664,880.3C6541.8,4629.6,6599.2,4564.5,6664.2,4486.1z M5454.8,2283.4c367.4-122.5,614.3-158.8,1077.4-158.8s717.6,38.3,1075.5,158.8c122.5,42.1,227.7,76.5,233.5,76.5c17.2,0,88-256.4,135.9-489.9c248.8-1198-55.5-2451.4-899.4-3720.2c-166.5-250.7-516.7-698.5-543.5-698.5c-51.7,0-499.5,604.7-729.1,985.5c-711.9,1182.7-945.4,2306-717.6,3435.1c44,216.2,118.6,488,132,488C5223.2,2360,5330.4,2325.5,5454.8,2283.4z M4838.6-32.1c38.3-162.7,111-407.6,160.7-545.4c51.7-135.9,86.1-254.5,80.4-260.3c-11.5-15.3-886-210.5-895.6-202.9c-1.9,3.8,122.5,323.4,277.5,710c237.3,593.2,283.2,696.6,294.7,650.7C4762,289.4,4800.3,130.5,4838.6-32.1z M8618.1-367c145.4-367.4,264.1-669.8,262.2-673.6c-9.6-7.6-884.1,189.5-895.6,200.9c-5.7,7.6,28.7,124.4,78.5,262.2c82.3,218.2,202.8,667.9,239.2,880.3c11.5,65.1,17.2,70.8,30.6,38.3C8342.5,320,8470.8,2.3,8618.1-367z M7008.7-3773.4l459.3-688.9l-466.9-5.7c-258.4-1.9-679.4-1.9-937.7,0l-468.9,5.7l463.1,694.7c254.5,380.8,468.9,690.8,476.5,688.9C6543.7-3082.6,6756.1-3394.5,7008.7-3773.4z"/>
<path d="M6379.1,3489.1V3336h153.1h153.1v153.1v153.1h-153.1h-153.1V3489.1z"/>
<path d="M5615.5,1632.8c-22.9-76.6-40.2-139.7-36.4-141.6c17.2-13.4,258.4-70.8,417.2-99.5c220.1-40.2,799.9-45.9,1014.3-11.5c137.8,23,461.2,97.6,474.6,109.1c3.8,3.8-13.4,68.9-36.3,143.5c-38.3,116.7-49.8,135.9-84.2,128.2c-21-3.8-128.2-28.7-239.2-53.6c-174.1-38.3-252.6-44-593.2-44c-340.6,0-419.1,5.7-593.2,44c-111,24.9-220.1,49.8-241.1,53.6C5661.5,1768.6,5651.9,1753.3,5615.5,1632.8z"/>
<path d="M5615.5,1020.4c-22.9-76.5-40.2-139.7-36.4-143.5c13.4-11.5,338.7-86.1,474.6-109.1c214.3-34.4,794.2-28.7,1014.3,11.5c160.8,28.7,400,86.1,417.2,99.5c3.8,1.9-13.4,67-36.3,141.6c-38.3,116.7-49.8,135.9-84.2,128.2c-21-3.8-128.2-28.7-239.2-53.6c-174.1-38.3-252.6-44-593.2-44c-340.6,0-419.1,5.7-593.2,44c-111,24.9-220.1,49.8-241.1,53.6C5661.5,1156.3,5651.9,1141,5615.5,1020.4z"/>
</g>
</g>

</svg>